<svg width="1440" height="813" viewBox="0 0 1440 813" fill="none" xmlns="http://www.w3.org/2000/svg">
<g clip-path="url(#clip0_137_1416)">
<rect width="1440" height="813" fill="white"/>
<rect width="1440" height="813" fill="#EDEDED"/>
<g opacity="0.3">
<circle cx="30.7978" cy="24.7978" r="6.79775" fill="#EE781D"/>
<circle cx="63.427" cy="24.7978" r="6.79775" fill="#EE781D"/>
<circle cx="96.0562" cy="24.7978" r="6.79775" fill="#EE781D"/>
<circle cx="128.685" cy="24.7978" r="6.79775" fill="#EE781D"/>
<circle cx="161.315" cy="24.7978" r="6.79775" fill="#EE781D"/>
<circle cx="193.944" cy="24.7978" r="6.79775" fill="#EE781D"/>
<circle cx="226.573" cy="24.7978" r="6.79775" fill="#EE781D"/>
<circle cx="259.202" cy="24.7978" r="6.79775" fill="#EE781D"/>
<circle cx="30.7978" cy="57.427" r="6.79775" fill="#EE781D"/>
<circle cx="63.427" cy="57.427" r="6.79775" fill="#EE781D"/>
<circle cx="96.0562" cy="57.427" r="6.79775" fill="#EE781D"/>
<circle cx="128.685" cy="57.427" r="6.79775" fill="#EE781D"/>
<circle cx="161.315" cy="57.427" r="6.79775" fill="#EE781D"/>
<circle cx="193.944" cy="57.427" r="6.79775" fill="#EE781D"/>
<circle cx="226.573" cy="57.427" r="6.79775" fill="#EE781D"/>
<circle cx="259.202" cy="57.427" r="6.79775" fill="#EE781D"/>
<circle cx="30.7978" cy="90.0562" r="6.79775" fill="#EE781D"/>
<circle cx="63.427" cy="90.0562" r="6.79775" fill="#EE781D"/>
<circle cx="96.0562" cy="90.0562" r="6.79775" fill="#EE781D"/>
<circle cx="128.685" cy="90.0562" r="6.79775" fill="#EE781D"/>
<circle cx="161.315" cy="90.0562" r="6.79775" fill="#EE781D"/>
<circle cx="193.944" cy="90.0562" r="6.79775" fill="#EE781D"/>
<circle cx="226.573" cy="90.0562" r="6.79775" fill="#EE781D"/>
<circle cx="259.202" cy="90.0562" r="6.79775" fill="#EE781D"/>
<circle cx="30.7978" cy="122.685" r="6.79775" fill="#EE781D"/>
<circle cx="63.427" cy="122.685" r="6.79775" fill="#EE781D"/>
<circle cx="96.0562" cy="122.685" r="6.79775" fill="#EE781D"/>
<circle cx="128.685" cy="122.685" r="6.79775" fill="#EE781D"/>
<circle cx="161.315" cy="122.685" r="6.79775" fill="#EE781D"/>
<circle cx="193.944" cy="122.685" r="6.79775" fill="#EE781D"/>
<circle cx="226.573" cy="122.685" r="6.79775" fill="#EE781D"/>
<circle cx="259.202" cy="122.685" r="6.79775" fill="#EE781D"/>
<circle cx="30.7978" cy="155.315" r="6.79775" fill="#EE781D"/>
<circle cx="63.427" cy="155.315" r="6.79775" fill="#EE781D"/>
<circle cx="96.0562" cy="155.315" r="6.79775" fill="#EE781D"/>
<circle cx="128.685" cy="155.315" r="6.79775" fill="#EE781D"/>
<circle cx="161.315" cy="155.315" r="6.79775" fill="#EE781D"/>
<circle cx="193.944" cy="155.315" r="6.79775" fill="#EE781D"/>
<circle cx="226.573" cy="155.315" r="6.79775" fill="#EE781D"/>
<circle cx="259.202" cy="155.315" r="6.79775" fill="#EE781D"/>
<circle cx="30.7978" cy="187.944" r="6.79775" fill="#EE781D"/>
<circle cx="63.427" cy="187.944" r="6.79775" fill="#EE781D"/>
<circle cx="96.0562" cy="187.944" r="6.79775" fill="#EE781D"/>
<circle cx="128.685" cy="187.944" r="6.79775" fill="#EE781D"/>
<circle cx="161.315" cy="187.944" r="6.79775" fill="#EE781D"/>
<circle cx="193.944" cy="187.944" r="6.79775" fill="#EE781D"/>
<circle cx="226.573" cy="187.944" r="6.79775" fill="#EE781D"/>
<circle cx="259.202" cy="187.944" r="6.79775" fill="#EE781D"/>
<circle cx="30.7978" cy="220.573" r="6.79775" fill="#EE781D"/>
<circle cx="63.427" cy="220.573" r="6.79775" fill="#EE781D"/>
<circle cx="96.0562" cy="220.573" r="6.79775" fill="#EE781D"/>
<circle cx="128.685" cy="220.573" r="6.79775" fill="#EE781D"/>
<circle cx="161.315" cy="220.573" r="6.79775" fill="#EE781D"/>
<circle cx="193.944" cy="220.573" r="6.79775" fill="#EE781D"/>
<circle cx="226.573" cy="220.573" r="6.79775" fill="#EE781D"/>
<circle cx="259.202" cy="220.573" r="6.79775" fill="#EE781D"/>
<circle cx="30.7978" cy="253.202" r="6.79775" fill="#EE781D"/>
<circle cx="63.427" cy="253.202" r="6.79775" fill="#EE781D"/>
<circle cx="96.0562" cy="253.202" r="6.79775" fill="#EE781D"/>
<circle cx="128.685" cy="253.202" r="6.79775" fill="#EE781D"/>
<circle cx="161.315" cy="253.202" r="6.79775" fill="#EE781D"/>
<circle cx="193.944" cy="253.202" r="6.79775" fill="#EE781D"/>
<circle cx="226.573" cy="253.202" r="6.79775" fill="#EE781D"/>
<circle cx="259.202" cy="253.202" r="6.79775" fill="#EE781D"/>
</g>
<rect opacity="0.4" x="1123" y="700.535" width="245" height="327" rx="10" transform="rotate(-19.6867 1123 700.535)" fill="#68CAF5"/>
</g>
<defs>
<clipPath id="clip0_137_1416">
<rect width="1440" height="813" fill="white"/>
</clipPath>
</defs>
</svg>
